<svg xmlns="http://www.w3.org/2000/svg" viewBox="0 0 482.49 206.46"><defs><style>.cls-1{fill:#fff;}</style></defs><g id="Layer_2" data-name="Layer 2"><g id="Layer_1-2" data-name="Layer 1"><path class="cls-1" d="M426.25,95a25.94,25.94,0,0,0-4.17-.8q-21.3,0-42.59,0a8.11,8.11,0,0,0-1.27.32l3.68.53c-2.65,4.9-5.39,9.7-7.89,14.63a62.31,62.31,0,0,0-6.94,27.25,47.42,47.42,0,0,0,10.16,30.81,69.64,69.64,0,0,0,19.36,17.4c.71.41,1.34,1,2.44,1.77-8.16,5-15.3,10.63-19.42,19.54-7.22-2.84-12.73-7.37-17.74-12.81.95-2.9,5.69-3.72,4.08-8.07-3.45-3.42-8.91-3.66-12.77-6.74-2.18-4.33-3.91-13.23-3.47-18.38,12-11.15,15.87-24.63,9.46-40.47a225.61,225.61,0,0,1,14.75-25.78H298V87.28H482.23a11.39,11.39,0,0,1,.25,1.5c0,1.69,0,3.37,0,5.17-4,.68-8.1-.55-12.4,1v4.21q0,43.67,0,87.35c0,1.38.39,2.88-.75,4.5-2.4-1.8-4.7-3.48-7-5.22A102.24,102.24,0,0,0,426,167.54c-8.61-2.28-17.39-3.94-26.1-5.82-2.81-.61-5.66-1-8.42-1.54l-13.36-25.64C393.8,121.15,409.67,108.17,426.25,95Zm18.78,21-.83-.49c-1.05.75-2.15,1.45-3.16,2.26-6,4.85-12.08,9.69-18,14.62-4.76,3.93-9.41,8-14.1,12-.8.69-1.87,1.3-1,2.9,19.77,5.29,37.84,14.34,53.45,28.22l1.91-2.07a34.25,34.25,0,0,0-3.35-3.43c-3.81-3-7.73-5.8-11.6-8.69-1-.78-2.08-1.58-3.31-2.51Z"/><path class="cls-1" d="M186.39,128.69a69,69,0,0,1,6.42-5.1c7.78-4.78,15.54-4,22.78,1,3.13,2.16,5.62,5.27,8.36,8,.75.74,1.38,1.6,2.24,2.61l2.06-1.89A35.38,35.38,0,0,0,209.85,118V95.37L207,93.59V87.34a24.25,24.25,0,0,1,2.52-.26c12.86,0,25.72-.21,38.57.06A21.94,21.94,0,0,1,265.67,96c2.4,3.15,4.14,6.8,6.19,10.22.65,1.08,1.33,2.15,2.1,3.39l2-1.18a3.67,3.67,0,0,0,0-1.26c-3.15-8.39-7.92-15.5-16-20-1.05-.59-2.31-1-1.61-3.15,8-2.14,16.66-2.9,25.1-4.87,1.56,2.32.22,4.92,1.27,7.61,3.67.62,7.66,0,11.87.4V94c-4,.45-8-.55-12.35.8,0,2.31-.14,4.6,0,6.86.34,4.48-1.31,8.29-3.7,11.89-.87,1.31-1.75,2.62-2.69,3.88a8.15,8.15,0,0,0-1.31,7.26c1.09,4.13,2.63,8.07,6.05,11,.9.75,1.93,1.53,1.33,3.21l-1.34-.24c-3.08-.47-4.2,0-5.63,2.71-1.74,3.31-3.34,6.71-5,10.07-1.87,3.79-3.77,7.58-5.61,11.39a23.39,23.39,0,0,0-1.14,3.06c-1,3-.53,4.18,2.27,5.57,4.12,2,8.29,4,12.43,6,1.41.68,2.77,1.43,4.24,2.19a108.35,108.35,0,0,1-.19,12.26l-25.72-16.7v-3.84q0-30,0-60a18.41,18.41,0,0,0-6.9-14.57,11.11,11.11,0,0,0-5.95-2.33,19.65,19.65,0,0,0-10.39.89c-.3,5.09-.1,10.4-.13,15.7s0,10.43,0,15.65v64.1l-25.32-15.79v-25c-5.92-4.67-12.34-3.93-16.14,1.74a53.34,53.34,0,0,0-3.82,7.77c-.63,1.42-1,2.93-1.72,4.9L169.14,153.7c-.27-2.15-.47-4.19-.79-6.22a91,91,0,0,0-1.66-9.61c-2.12-7.91-10.14-12.94-16.6-13.21-5.87-.25-10.49,2.66-13.63,7.57a6.33,6.33,0,0,0-.54,6.44c.58-.26,1.26-.34,1.54-.72,3.29-4.48,7.55-6.64,12.95-4.67,5.89,2.13,9.06,6.63,9.61,12.9,1,11-7.29,17.26-16.39,18.61-1.63.24-2.75-.65-3.86-1.62-2-1.74-4-3.55-6.07-5.17-3.81-2.95-8.33-4.29-13.06-5.3,0-5.89,0-11.68,0-17.47,0-3.29,0-6.58,1.83-9.5a57,57,0,0,1,3.8-5.74c5.51-6.87,13-10.15,21.43-11.85a33.16,33.16,0,0,1,16.44.61c9.19,2.78,15.64,8.92,20.46,17C185.14,126.64,185.69,127.54,186.39,128.69Z"/><path class="cls-1" d="M37,138c2,.33,3.27.65,4.53.73,7.18.45,14.37.07,21.15-2.3,8-2.78,13.62-8.19,15.74-16.68a10.21,10.21,0,0,0-.08-2.46c-3.11,2.35-5.73,4.65-8.66,6.45a18.62,18.62,0,0,1-10.3,3c-3.5-.08-7,.3-10.59-1.26L34.14,113.92c.44-1.25.76-2.27,1.14-3.27a26.63,26.63,0,0,0,1.61-13.89c-.74-4.61.28-6.67,4.11-8.7,5.18-2.75,10.26-2.24,15.12.88,4.59,3,7.28,7,7.08,12.66A11.55,11.55,0,0,1,61,108l-1.27,1.79c4,.74,8.83-2.32,11.75-7,2.7-4.35,2.15-9.28,2.41-14.59C83,91,89.07,96.84,93.54,104.42c4.66,7.88,5.54,16.37,3.39,25.26-2.09,8.66-7.18,15.42-14.09,21.74,5.5,2.45,10.51,4.43,15.28,6.87a141.68,141.68,0,0,1,13.79,8.05c4.48,3,8.67,6.41,13.3,9.88a6.86,6.86,0,0,0,.68-1.21,8.35,8.35,0,0,0,.19-1.37c-4.89-5.63-11.11-9.42-17.26-13.56V84.27l24.65-5c.15,2.71.28,5,.43,7.64h11.88v6.88c-3.88,1.08-8-.54-12,1.19v11.4c-2.36,1.69-4.65,3.24-6.85,4.91-5.78,4.42-9.2,10.5-11.79,17.11a9.16,9.16,0,0,0-.34,3.24q0,10,0,20c0,4.26,1.52,5.76,5.85,6.87,4.69,1.2,9.24,2.86,12.8,6.38v26.8c-1.88-1.35-3.34-2.33-4.73-3.4a126.15,126.15,0,0,0-44.25-21.89,125.09,125.09,0,0,0-22-4.08c-4.45-.38-8.87-1.08-13.82-1.7C44.82,153.59,41,146.17,37,138Z"/><path class="cls-1" d="M283.1,142.24c4.82,1.7,9.28,3.54,13.9,4.84a43.64,43.64,0,0,0,16.5,1.8c6.82-.76,13.33-2.45,18.42-7.52s6-11.81,1.77-18.16c-3.15-4.78-7.68-7.19-13.12-8.23a2.6,2.6,0,0,0-3.17,1.61l1.07,2.81A10.22,10.22,0,0,1,316.84,130c-4.94,6.24-11.58,8.56-19.32,7.43a27.1,27.1,0,0,1-7.42-2.64c-4.69-2.23-6.7-6.44-7.67-11.26-.44-2.21.49-4,1.81-5.7,4-5.06,6.17-10.91,7.34-17.4.92-.09,1.85-.25,2.79-.25q13.1,0,26.2,0c4.05,0,7.82,1.37,11.56,2.73a55.76,55.76,0,0,1,15.44,8.66,29.13,29.13,0,0,1,5.54,39.78c-6.54,9.36-15.83,14.39-26.7,16.73-3.39.73-7,.53-10.45.92-3.81.43-7.61,1.05-11.64,1.62.05.76.09,1.3.15,2.19,3.27,0,6.39.18,9.48,0,4-.28,7.92-.92,11.89-1.31a5.87,5.87,0,0,1,2.82.37c10.95,4.78,21.88,9.64,32.81,14.49.31.14.53.48,1.11,1-5.37,5.74-11.56,10.52-17.55,16l-73.87-35.15C271.4,165.17,279.35,148,283.1,142.24Z"/><path class="cls-1" d="M410.59,81.41h-81.4C336,57.35,342.75,33.6,349.49,9.83l4.6-2.06,26.32,7.4c2.52-3.06,5.59-4.92,9.56-3.88S395,16.08,396,19.6l21.81,6.22c.58.16,1.16.32,1.74.5C424,27.68,425.3,30,424,34.54Q422,41.88,419.89,49.2l-8.67,30.38C411.06,80.14,410.84,80.7,410.59,81.41Zm-37.25-59.9c8.39,2.58,16.52,5,25.14,7,.33-1.79.58-3.12.83-4.51l-6.61-2.3c-.5-2.36-.88-4.19-1.3-6.23L386,14.28l-3.87,4.53-7.41-1.66Zm22.54,55.55c1.23-3.46-2-5.4-2.43-8.36l6.77-4.4c-.63-1.21-1.07-2.07-1.65-3.23l-7.35,3.48c-2.38-1.84-2.32-5.33-5.58-6.77l-2.09,2.52L387,66.94l-6.29,3.88V73.7c3.57,1.33,5.56-2.16,8.62-2.44l4,6.39Zm13.91-38.57-2.24-3.29-10.76,8.66c-2.71-1.72-2.34-6.08-6.47-5.77l-1,2.38c1.9,3.26,3.33,6.71,6,9.8C400.62,47,404.8,42.79,409.79,38.49ZM376.31,63c-.79-.62-1.48-1.54-2.37-1.81-6.81-2.05-13.65-4-20.5-5.93l-1.93,1.53a2.94,2.94,0,0,0,2.3,3.11C359.86,61.66,365.9,63.39,372,65,373.5,65.45,375.16,65.65,376.31,63ZM358.74,30.67c.22,1.58.78,2.3,2,2.65,6.5,1.83,13,3.75,19.48,5.56,1.52.42,2.91.17,3.48-2.11A12,12,0,0,0,380.88,35c-6.71-2-13.47-3.86-20.2-5.77Z"/><path class="cls-1" d="M112.06,31.29a25.29,25.29,0,0,1,13.3-1.79c-.42,2-.77,3.7-1,5.07,1.31,1.93,2.55,3,5.1,2.33l3.18-5.63c2.8-.45,4.86.27,8.38,3.12l-2.76,5.44a6.84,6.84,0,0,0,.21,1.41c1.76,4.09,4.6,4.54,7.37,1.17.91-1.09,1.8-2.21,2.78-3.41A28.84,28.84,0,0,1,156,48.5c-1.34.67-2.39,1.17-3.42,1.71-3,1.56-3.3,2.91-1.57,6.14,2.87,2,5-.63,7.79-1.46,1.73,3.8,2.25,7.73,2.57,12.26l-5.92-.3-2.16,1c-1.38,1.91-1.47,3.7,0,5.9l6.54,2.41c-.26,3.37-1.66,6.12-3.5,9l-5.65-1.33-2.88-2.17h-8.14c-.17-.94-.32-1.62-.41-2.31-.54-4.21-3.47-6.35-7.66-5.58l-3.87.74c1-4.67,1.85-8.88,2.76-13.08.38-1.78,1-3.52,1.22-5.31.27-2-.11-2.26-2.62-3-3.24,1.91-2.41,6.4-5.14,8.89-3.12-4.35-4.44-9.43-8.19-13.33L113,50c0,.64-.14.91-.06,1.11,1.69,4.53,3.41,9.05,5.12,13.58.3.79.62,1.57.89,2.38.94,2.83,1.85,5.66,2.82,8.62-3.38.68-7.16,1.42-10.92,2.21a28.79,28.79,0,0,0-3.14.9c-3.73,1.25-3.81,1.35-5.15,5.38.16.92.35,1.87.48,2.82a3,3,0,0,1,0,.77l-6,5.87c-2.65-1.87-5.14-4.25-6-8,1.59-2.16,5.18-1.54,6-5.06l-1.26-2.86c-3-1.47-5.24.5-7.52,1.05-2.05-3-2.14-3.35-2.05-7.33L90.53,71c.44-.28,1.06-.65,1.65-1.06a3.29,3.29,0,0,0,1.62-3.72,3.94,3.94,0,0,0-3.22-3.1c-1.39-.28-2.82-.38-4.58-.6a16.77,16.77,0,0,1,3.18-9.81l5.48,1.47,2.81-3.14L96.23,48,92,46a32.3,32.3,0,0,1,12.32-11.22l3.19,5.49c4.06,1.62,5.19,1.05,6.66-3.45-.3-.75-.67-1.64-1-2.54S112.57,32.69,112.06,31.29Z"/><path class="cls-1" d="M49.29,186.47c-8.12,4.72-15,10.5-19.2,19.32A55.34,55.34,0,0,1,24.38,203c-12-7.65-19.92-18.15-23-32.19a63.83,63.83,0,0,1-.2-25.24c2.85-16,9.9-30.3,18.23-44.05,1.37-2.28,2.84-4.5,4.49-7.09-5.9-.76-11.76.2-17.71-.57V87.15C10.31,87,14.51,87,18.7,87.1c4,.13,8.17-.73,12.2.69.23,2.77.43,5.28.62,7.6-3,6-6.11,11.92-8.87,18a56.63,56.63,0,0,0-5,23.28,47.6,47.6,0,0,0,10.2,30.43,69.43,69.43,0,0,0,19.37,17.37,14,14,0,0,1,1.5,1C48.85,185.57,48.92,185.84,49.29,186.47Z"/><path class="cls-1" d="M83.87,85.92c-2.22-1-4.06-1.89-6.28-2.91-4-10.27-3.57-20.94-.39-31.83C75,49.4,73.06,47.5,70,47.58l-2,3.33c-2.5.36-4.13-.81-5.88-2.23C64,42.47,67.5,37.12,70.24,30.9l5.43,2.51c-.33,1.73-.6,3.12-.84,4.4,2.45,2.47,2.82,2.66,6.68,3.34,2.47-2.85,4.88-6,7.71-8.77s5.9-4.92,9.15-7.57c.55-2.33-.49-4.32-2.67-6.1l-4.07,1.07c-2.46-3.29-3-7.49-5.55-11.18,6-3.44,12-5.79,18.31-8.6l5.22,11.65-4.17,3.13L107.79,20c4.34.12,8.42-1.31,12.6-1.37s8.18.23,12.56.37c1.51-2.4,1.9-5.19,2.59-8.1l-3.95-1.92c.19-2-.21-4.25,2-6.14l18.32,6.05c-.74,2.09-1.36,3.86-2,5.72l-4.91-.4-2.64,7.34a17,17,0,0,0,2.7,2.05c9.63,4.42,16.43,11.72,21.43,20.88,6.55,12,6.88,24.72,3.21,37.41-2.21,7.65-6.17,14.74-12.77,20H149.5c12.31-10,18-22.61,17.24-38a40.08,40.08,0,0,0-10.66-25.65c-14.56-15.82-36.91-19-54.37-9C84.88,38.89,73.75,60.8,83.87,85.92Z"/></g></g></svg>